<?xml version="1.0" standalone="no"?>
<!DOCTYPE svg PUBLIC "-//W3C//DTD SVG 20010904//EN"
 "http://www.w3.org/TR/2001/REC-SVG-20010904/DTD/svg10.dtd">
<svg version="1.0" xmlns="http://www.w3.org/2000/svg"
 width="240.000000pt" height="240.000000pt" viewBox="0 0 240.000000 240.000000"
 preserveAspectRatio="xMidYMid meet">
<metadata>
Created by potrace 1.14, written by Peter Selinger 2001-2017
</metadata>
<g transform="translate(0.000000,240.000000) scale(0.100000,-0.100000)"
fill="#000000" stroke="none">
<path d="M1095 2219 c-156 -19 -340 -86 -463 -171 -78 -54 -211 -188 -265
-267 -63 -94 -122 -218 -149 -318 -18 -66 -22 -106 -22 -258 -1 -214 15 -289
93 -450 160 -327 454 -533 820 -575 172 -20 361 12 527 89 117 55 184 101 278
192 138 132 225 275 283 464 25 84 27 102 27 275 0 173 -2 191 -27 274 -130
421 -464 701 -892 746 -101 11 -112 11 -210 -1z m241 -80 c433 -60 760 -399
814 -843 19 -156 -10 -331 -81 -491 -61 -138 -201 -304 -332 -392 -485 -324
-1148 -137 -1389 394 -55 121 -81 242 -82 383 -2 199 47 366 153 528 202 307
559 471 917 421z"/>
</g>
</svg>
